<?xml version="1.0" encoding="UTF-8" standalone="no"?>
<!-- Created with Inkscape (http://www.inkscape.org/) -->

<svg
   width="164.94302mm"
   height="102.21774mm"
   viewBox="0 0 164.94302 102.21774"
   version="1.1"
   id="svg1"
   xml:space="preserve"
   inkscape:version="1.4 (86a8ad7, 2024-10-11)"
   sodipodi:docname="logo-task.svg"
   xmlns:inkscape="http://www.inkscape.org/namespaces/inkscape"
   xmlns:sodipodi="http://sodipodi.sourceforge.net/DTD/sodipodi-0.dtd"
   xmlns:xlink="http://www.w3.org/1999/xlink"
   xmlns="http://www.w3.org/2000/svg"
   xmlns:svg="http://www.w3.org/2000/svg"><sodipodi:namedview
     id="namedview1"
     pagecolor="#ffffff"
     bordercolor="#000000"
     borderopacity="0.25"
     inkscape:showpageshadow="2"
     inkscape:pageopacity="0.0"
     inkscape:pagecheckerboard="0"
     inkscape:deskcolor="#d1d1d1"
     inkscape:document-units="mm"
     inkscape:zoom="0.69670057"
     inkscape:cx="393.2823"
     inkscape:cy="221.75954"
     inkscape:window-width="1366"
     inkscape:window-height="697"
     inkscape:window-x="320"
     inkscape:window-y="1072"
     inkscape:window-maximized="1"
     inkscape:current-layer="g1" /><defs
     id="defs1"><clipPath
       clipPathUnits="userSpaceOnUse"
       id="clipPath13"><use
         x="0"
         y="0"
         xlink:href="#g12"
         id="use13" /></clipPath></defs><g
     inkscape:label="Capa 1"
     inkscape:groupmode="layer"
     id="layer1"
     transform="translate(-63.925039,-54.073122)"><g
       id="g1"
       transform="translate(8.9245059,11.962636)"><path
         style="fill:#4bc9ec;fill-opacity:1;stroke-width:1"
         d="m 207.16399,43.847577 c 7.54105,3.188873 12.77956,11.115731 12.77956,19.337938 0,3.850451 -0.70141,8.233747 -1.55865,9.740666 -0.85725,1.506921 -10.98288,11.825307 -22.50149,22.929755 -19.35621,18.660314 -20.71544,19.698244 -17.94089,13.700284 2.03818,-4.40621 2.99148,-9.49897 2.96937,-15.863489 -0.0392,-10.69217 -2.27229,-17.835787 -8.16615,-26.09912 l -4.10778,-5.759205 7.29902,-7.311223 c 11.50297,-11.522122 21.30261,-14.872334 31.22701,-10.675606 z"
         id="path3-7" /><path
         style="fill:#fe9c01;fill-opacity:1;stroke-width:1"
         d="m 67.780092,142.59113 c -7.541049,-3.18887 -12.779559,-11.11573 -12.779559,-19.33794 0,-3.85045 0.70141,-8.23375 1.55865,-9.74067 0.85725,-1.50692 10.982879,-11.8253 22.501489,-22.929754 19.356207,-18.66032 20.715437,-19.69825 17.940887,-13.70029 -2.03818,4.40621 -2.99148,9.49897 -2.96937,15.86349 0.0392,10.692174 2.27229,17.835794 8.166151,26.099124 l 4.10778,5.75921 -7.299021,7.31122 c -11.50297,11.52212 -21.302607,14.87234 -31.227007,10.67561 z"
         id="path3-7-8" /><g
         id="g13"
         clip-path="url(#clipPath13)"><g
           inkscape:label="Clip"
           id="g12" /></g><path
         style="fill:#f43d5b;stroke-width:1.01442"
         d="m 101.97993,119.01587 c -5.809456,-8.38087 -8.013116,-15.60155 -8.070056,-26.44284 -0.0579,-11.04243 4.476,-22.482355 12.054376,-30.415082 14.81281,-15.505425 42.62831,-17.747698 58.02581,-4.677609 l 5.02578,4.266121 -31.48763,31.56367 -31.48765,31.56365 z"
         id="path2" /><path
         style="fill:#2a89e9;fill-opacity:1;stroke-width:1.01442"
         d="m 172.98895,67.631039 c 5.80947,8.38087 8.01312,15.601551 8.07007,26.442831 0.0579,11.04244 -4.47601,22.48237 -12.05439,30.4151 -14.8128,15.50542 -42.62829,17.74769 -58.0258,4.67761 l -5.02578,-4.26613 31.48764,-31.56368 31.48763,-31.563641 z"
         id="path2-3" /></g></g></svg>
